<?xml version="1.0" encoding="UTF-8"?>
<svg width="1480" height="1020" viewBox="0 0 1480 1020"
     xmlns="http://www.w3.org/2000/svg" xmlns:xlink="http://www.w3.org/1999/xlink">
<defs>
  <marker id="markerArr" markerWidth="8" markerHeight="8" refX="4" refY="4" orient="auto">
    <path d="M0,0 L0,8 L8,4 z" fill="#555"/>
  </marker>
  <filter id="shadow" x="-5%" y="-5%" width="115%" height="115%">
    <feDropShadow dx="3" dy="3" stdDeviation="3" flood-opacity="0.15"/>
  </filter>
</defs>
<rect x="0" y="0" width="1480" height="1020" fill="#FAFAFA" stroke="none" stroke-width="1.5" rx="0" />
<rect x="0" y="0" width="1480" height="52" fill="#1A2744" stroke="none" stroke-width="1.5" rx="0" />
<text x="740" y="22" text-anchor="middle" font-family="Arial,sans-serif" font-size="15" fill="white" font-weight="bold" >TAMBOR EM V — MISTURADOR ALIMENTÍCIO  |  AISI 316L  |  Capacidade 15–20 kg</text>
<text x="740" y="43" text-anchor="middle" font-family="Arial,sans-serif" font-size="11" fill="#AAC4FF" font-weight="normal" >Vista Principal + Vista Explodida do Conjunto de Eixo  ·  Escala aprox. 1:1,4  ·  Cotas em mm</text>
<line x1="820" y1="55" x2="820" y2="1000" stroke="#CCC" stroke-width="0.8" stroke-dasharray="8,4"/>

<!-- ═══ VISTA PRINCIPAL ═══ -->
<g id="main-view">
<text x="240" y="90" text-anchor="middle" font-family="Arial,sans-serif" font-size="13" fill="#1A2744" font-weight="bold" >VISTA PRINCIPAL (Frente)</text>
<polygon points="182.5,629.6 299.6,512.5 349.3,487.7 232.2,604.8" fill="#ABABAB" stroke="#1A2744" stroke-width="1" />
<polygon points="620.4,512.5 737.5,629.6 787.1,604.8 670.1,487.7" fill="#ABABAB" stroke="#1A2744" stroke-width="1" />
<polygon points="401.5,848.5 182.5,629.6 232.2,604.8 451.1,823.7" fill="#919191" stroke="#1A2744" stroke-width="1" />
<polygon points="737.5,629.6 518.5,848.5 568.2,823.7 787.1,604.8" fill="#919191" stroke="#1A2744" stroke-width="1" />
<polygon points="401.5,848.5 182.5,629.6 299.6,512.5 518.5,731.5" fill="#D6D6D6" stroke="#1A2744" stroke-width="1.8" />
<polygon points="401.5,731.5 620.4,512.5 737.5,629.6 518.5,848.5" fill="#D6D6D6" stroke="#1A2744" stroke-width="1.8" />
<polygon points="431.2,790 488.8,790 488.8,826 431.2,826" fill="#ABABAB" stroke="#1A2744" stroke-width="1.5" />
<polygon points="488.8,826 431.2,826 456,813.6 513.6,813.6" fill="#919191" stroke="#1A2744" stroke-width="1" />
<polygon points="360.6,766.8 286.2,616.2 362.3,692.3 436.8,690.6" fill="#BFBFBF" stroke="#1A2744" stroke-width="1.5" />
<polygon points="483.2,690.6 557.7,692.3 633.8,616.2 559.4,766.8" fill="#BFBFBF" stroke="#1A2744" stroke-width="1.5" />
<circle cx="241.1" cy="571.1" r="39.6" fill="#E0E0E0" stroke="#1A2744" stroke-width="2"/>
<circle cx="241.1" cy="571.1" r="13" fill="#888" stroke="#1A2744" stroke-width="1.5"/>
<circle cx="678.9" cy="571.1" r="39.6" fill="#E0E0E0" stroke="#1A2744" stroke-width="2"/>
<circle cx="678.9" cy="571.1" r="13" fill="#888" stroke="#1A2744" stroke-width="1.5"/>
<circle cx="201.5" cy="561.1" r="8.6" fill="none" stroke="#1A2744" stroke-width="2"/>
<circle cx="718.5" cy="561.1" r="8.6" fill="none" stroke="#1A2744" stroke-width="2"/>
<line x1="401.5" y1="848.5" x2="422.7" y2="869.8" stroke="#555" stroke-width="0.8" stroke-dasharray="4,3"/>
<line x1="518.5" y1="731.5" x2="539.8" y2="752.7" stroke="#555" stroke-width="0.8" stroke-dasharray="4,3"/>
<line x1="421.3" y1="868.3" x2="538.3" y2="751.3" stroke="#555" stroke-width="1" marker-start="url(#markerArr)" marker-end="url(#markerArr)"/>
<text x="488.3" y="822.3" text-anchor="middle" font-family="Arial,sans-serif" font-size="11" fill="#555" font-weight="normal" >230</text>
<line x1="401.5" y1="848.5" x2="380.2" y2="869.8" stroke="#555" stroke-width="0.8" stroke-dasharray="4,3"/>
<line x1="182.5" y1="629.6" x2="161.3" y2="650.8" stroke="#555" stroke-width="0.8" stroke-dasharray="4,3"/>
<line x1="381.7" y1="868.3" x2="162.7" y2="649.4" stroke="#555" stroke-width="1" marker-start="url(#markerArr)" marker-end="url(#markerArr)"/>
<text x="263.7" y="771.4" text-anchor="middle" font-family="Arial,sans-serif" font-size="11" fill="#555" font-weight="normal" >430</text>
<text x="460" y="760" text-anchor="middle" font-family="Arial,sans-serif" font-size="13" fill="#CC0000" font-weight="bold" >90°</text>
<path d="M 410 760 A 60 60 0 0 1 510 760" fill="none" stroke="#CC0000" stroke-width="1.5"/>
<line x1="241.1" y1="571.1" x2="290.8" y2="546.2" stroke="#555" stroke-width="1" stroke-dasharray="5,3"/>
<text x="273.9" y="546.7" text-anchor="middle" font-family="Arial,sans-serif" font-size="10" fill="#555" font-weight="normal" >230 (prof.)</text>
<line x1="431.2" y1="790" x2="431.2" y2="810" stroke="#555" stroke-width="0.8" stroke-dasharray="4,3"/>
<line x1="488.8" y1="790" x2="488.8" y2="810" stroke="#555" stroke-width="0.8" stroke-dasharray="4,3"/>
<line x1="431.2" y1="808" x2="488.8" y2="808" stroke="#555" stroke-width="1" marker-start="url(#markerArr)" marker-end="url(#markerArr)"/>
<text x="460" y="824" text-anchor="middle" font-family="Arial,sans-serif" font-size="10" fill="#555" font-weight="normal" >80</text>
<text x="152.5" y="609.6" text-anchor="middle" font-family="Arial,sans-serif" font-size="9" fill="#555" font-weight="normal" font-style="italic">e = 2,5mm</text>
<line x1="171.1" y1="571.1" x2="191.1" y2="571.1" stroke="#555" stroke-width="0.8" />
<line x1="390" y1="790" x2="410" y2="790" stroke="#555" stroke-width="0.8" />
<line x1="181.1" y1="571.1" x2="181.1" y2="790" stroke="#555" stroke-width="1" marker-start="url(#markerArr)" marker-end="url(#markerArr)"/>
<text x="167.1" y="680.5" text-anchor="middle" font-family="Arial,sans-serif" font-size="10" fill="#555" font-weight="normal" >~460</text>
<text x="166.5" y="551.1" text-anchor="middle" font-family="Arial,sans-serif" font-size="9" fill="#555" font-weight="normal" >Flange eixo</text>
<text x="166.5" y="563.1" text-anchor="middle" font-family="Arial,sans-serif" font-size="9" fill="#555" font-weight="normal" >Ø150 | 8×M8</text>
<text x="301.4" y="681.5" text-anchor="middle" font-family="Arial,sans-serif" font-size="8" fill="#555" font-weight="normal" >Tampa</text>
<text x="301.4" y="693.5" text-anchor="middle" font-family="Arial,sans-serif" font-size="8" fill="#555" font-weight="normal" >limpeza</text>
<text x="460" y="844" text-anchor="middle" font-family="Arial,sans-serif" font-size="9" fill="#555" font-weight="normal" >Saída Ø80</text>
<text x="600" y="990" text-anchor="middle" font-family="Arial,sans-serif" font-size="9" fill="#888" font-weight="normal" >Material: AISI 316L | Solda TIG + backing gas argônio | Ra int. ≤ 0,4 μm | Norma: ASTM A240 + EHEDG Cat.II + ANVISA RDC 49</text>
<text x="420" y="840" text-anchor="middle" font-family="Arial,sans-serif" font-size="11" fill="#555" font-weight="normal" >V  =  90°</text>
</g>

<!-- ═══ VISTA EXPLODIDA ═══ -->
<g id="exploded-view">
<text x="1133.8" y="90" text-anchor="middle" font-family="Arial,sans-serif" font-size="13" fill="#1A2744" font-weight="bold" >VISTA EXPLODIDA — CONJUNTO DE EIXO</text>
<text x="1133.8" y="108" text-anchor="middle" font-family="Arial,sans-serif" font-size="10" fill="#888" font-weight="normal" >Tambor + Eixo ∅35mm + Rolamentos + Mancais (escala orientativa)</text>
<line x1="905.6" y1="200" x2="1362.1" y2="200" stroke="#999" stroke-width="0.8" stroke-dasharray="10,5"/>
<rect x="905.6" y="187.4" width="456.5" height="25.2" fill="#8B7030" stroke="#5C4010" stroke-width="2" rx="0" />
<line x1="959.6" y1="200" x2="981.2" y2="200" stroke="#BBB" stroke-width="0.8" stroke-dasharray="6,4"/>
<line x1="997" y1="200" x2="1040.2" y2="200" stroke="#BBB" stroke-width="0.8" stroke-dasharray="6,4"/>
<line x1="1205.8" y1="200" x2="1249" y2="200" stroke="#BBB" stroke-width="0.8" stroke-dasharray="6,4"/>
<line x1="1264.9" y1="200" x2="1286.5" y2="200" stroke="#BBB" stroke-width="0.8" stroke-dasharray="6,4"/>
<rect x="920" y="164" width="39.6" height="72" fill="#C8C8C8" stroke="#1A2744" stroke-width="2" rx="4" /><circle cx="939.8" cy="200" r="28.1" fill="#A8A8A8" stroke="#1A2744" stroke-width="1"/><text x="939.8" y="258" text-anchor="middle" font-family="Arial,sans-serif" font-size="10" fill="#555" font-weight="normal" >Mancal</text>
<text x="939.8" y="272" text-anchor="middle" font-family="Arial,sans-serif" font-size="10" fill="#555" font-weight="normal" >Flangeado Inox</text>
<text x="939.8" y="286" text-anchor="middle" font-family="Arial,sans-serif" font-size="10" fill="#555" font-weight="normal" >∅35mm | 304</text>
<rect x="981.2" y="174.8" width="15.8" height="50.4" fill="#2255AA" stroke="#1A2744" stroke-width="2" rx="3" /><rect x="981.2" y="183.8" width="15.8" height="32.4" fill="#5577CC" stroke="#1A2744" stroke-width="1" rx="2" /><text x="989.1" y="162.8" text-anchor="middle" font-family="Arial,sans-serif" font-size="10" fill="#555" font-weight="normal" >Rolamento</text>
<text x="989.1" y="174.8" text-anchor="middle" font-family="Arial,sans-serif" font-size="10" fill="#555" font-weight="normal" >SKF 6307-2RS1</text>
<text x="989.1" y="186.8" text-anchor="middle" font-family="Arial,sans-serif" font-size="10" fill="#555" font-weight="normal" >∅35 × ∅80 | 2RS</text>
<polygon points="1123,99.2 1205.8,200 1123,260.5 1040.2,200" fill="#D6D6D6" stroke="#1A2744" stroke-width="2" />
<rect x="1040.2" y="178.4" width="10.8" height="43.2" fill="#C2C2C2" stroke="#1A2744" stroke-width="1.5" rx="2" />
<rect x="1195" y="178.4" width="10.8" height="43.2" fill="#C2C2C2" stroke="#1A2744" stroke-width="1.5" rx="2" />
<circle cx="1045.3" cy="200" r="13.3" fill="#888" stroke="#1A2744" stroke-width="1"/>
<circle cx="1200.8" cy="200" r="13.3" fill="#888" stroke="#1A2744" stroke-width="1"/>
<text x="1123" y="81.2" text-anchor="middle" font-family="Arial,sans-serif" font-size="11" fill="#1A2744" font-weight="bold" >TAMBOR EM V</text>
<text x="1123" y="93.2" text-anchor="middle" font-family="Arial,sans-serif" font-size="10" fill="#555" font-weight="normal" >AISI 316L | ~74 L | 15–20 kg</text>
<rect x="1135.6" y="197.1" width="36" height="5.8" fill="#AA8830" stroke="#1A2744" stroke-width="1" rx="1" />
<text x="1153.6" y="189.1" text-anchor="middle" font-family="Arial,sans-serif" font-size="9" fill="#555" font-weight="normal" >Chaveta 10×8×50 A4</text>
<rect x="1249" y="174.8" width="15.8" height="50.4" fill="#2255AA" stroke="#1A2744" stroke-width="2" rx="3" /><rect x="1249" y="183.8" width="15.8" height="32.4" fill="#5577CC" stroke="#1A2744" stroke-width="1" rx="2" /><text x="1257" y="162.8" text-anchor="middle" font-family="Arial,sans-serif" font-size="10" fill="#555" font-weight="normal" >Rolamento</text>
<text x="1257" y="174.8" text-anchor="middle" font-family="Arial,sans-serif" font-size="10" fill="#555" font-weight="normal" >SKF 6307-2RS1</text>
<text x="1257" y="186.8" text-anchor="middle" font-family="Arial,sans-serif" font-size="10" fill="#555" font-weight="normal" >∅35 × ∅80 | 2RS</text>
<rect x="1286.5" y="164" width="39.6" height="72" fill="#C8C8C8" stroke="#1A2744" stroke-width="2" rx="4" /><circle cx="1306.3" cy="200" r="28.1" fill="#A8A8A8" stroke="#1A2744" stroke-width="1"/><text x="1306.3" y="258" text-anchor="middle" font-family="Arial,sans-serif" font-size="10" fill="#555" font-weight="normal" >Mancal</text>
<text x="1306.3" y="272" text-anchor="middle" font-family="Arial,sans-serif" font-size="10" fill="#555" font-weight="normal" >Flangeado Inox</text>
<text x="1306.3" y="286" text-anchor="middle" font-family="Arial,sans-serif" font-size="10" fill="#555" font-weight="normal" >∅35mm | 304</text>
<line x1="905.6" y1="306" x2="905.6" y2="291" stroke="#555" stroke-width="0.8" />
<line x1="1362.1" y1="306" x2="1362.1" y2="291" stroke="#555" stroke-width="0.8" />
<line x1="905.6" y1="298" x2="1362.1" y2="298" stroke="#555" stroke-width="1" marker-start="url(#markerArr)" marker-end="url(#markerArr)"/>
<text x="1133.8" y="314" text-anchor="middle" font-family="Arial,sans-serif" font-size="10" fill="#555" font-weight="normal" >Comprimento total do eixo: ~808mm  |  ∅35mm AISI 1045 beneficiado</text>
<line x1="939.8" y1="142" x2="1306.3" y2="142" stroke="#555" stroke-width="1" marker-start="url(#markerArr)" marker-end="url(#markerArr)"/>
<text x="1123" y="132" text-anchor="middle" font-family="Arial,sans-serif" font-size="10" fill="#555" font-weight="normal" >Entre apoios: ~608mm</text>
<rect x="920" y="336" width="14" height="14" fill="#8B7030" stroke="#1A2744" stroke-width="1" rx="0" />
<text x="940" y="347" text-anchor="start" font-family="Arial,sans-serif" font-size="10" fill="#555" font-weight="normal" >Eixo AISI 1045</text>
<rect x="1080" y="336" width="14" height="14" fill="#2255AA" stroke="#1A2744" stroke-width="1" rx="0" />
<text x="1100" y="347" text-anchor="start" font-family="Arial,sans-serif" font-size="10" fill="#555" font-weight="normal" >Rolamento SKF 6307</text>
<rect x="1290" y="336" width="14" height="14" fill="#C8C8C8" stroke="#1A2744" stroke-width="1" rx="0" />
<text x="1310" y="347" text-anchor="start" font-family="Arial,sans-serif" font-size="10" fill="#555" font-weight="normal" >Mancal inox 304</text>
<rect x="1470" y="336" width="14" height="14" fill="#D6D6D6" stroke="#1A2744" stroke-width="1" rx="0" />
<text x="1490" y="347" text-anchor="start" font-family="Arial,sans-serif" font-size="10" fill="#555" font-weight="normal" >Tambor AISI 316L</text>
<rect x="1650" y="336" width="14" height="14" fill="#AA8830" stroke="#1A2744" stroke-width="1" rx="0" />
<text x="1670" y="347" text-anchor="start" font-family="Arial,sans-serif" font-size="10" fill="#555" font-weight="normal" >Chaveta 10×8×50 A4</text>
</g>

<line x1="0" y1="980" x2="1480" y2="980" stroke="#CCC" stroke-width="0.5" />
<rect x="0" y="980" width="1480" height="40" fill="#F0F0F0" stroke="none" stroke-width="1.5" rx="0" />
<text x="40" y="998" text-anchor="start" font-family="Arial,sans-serif" font-size="9" fill="#888" font-weight="normal" >Doc: PF-TAMBOR-V-001  Rev.A  |  2026-06-11</text>
<text x="740" y="998" text-anchor="middle" font-family="Arial,sans-serif" font-size="9" fill="#888" font-weight="normal" >Misturador em V Alimentício — Tambor AISI 316L — Projeto Técnico</text>
<text x="1440" y="998" text-anchor="end" font-family="Arial,sans-serif" font-size="9" fill="#AAA" font-weight="normal" >TODOS OS DIREITOS RESERVADOS</text>
</svg>